<?xml version="1.0" encoding="UTF-8"?>
<svg xmlns="http://www.w3.org/2000/svg" width="17.09979397915137" height="20.0" viewBox="989.4999999999973 22.5 17.09979397915137 20.0" preserveAspectRatio="none">
  <g>
    <defs>
      <path id="mi-933df761-Path_26-33659" d="M998.0554869394277 42.5 C998.769373825458 42.5 999.2713158594875 41.99805796597054 999.2713158594875 41.26183548729769 L999.2713158594875 30.877033978174623 L999.159758930157 28.534596264404204 L1002.1380324102687 31.802865716205744 L1004.4357953077375 34.05608330362708 C1004.6589091663985 34.27907007671158 1004.9712419410697 34.4241316053447 1005.3170817357212 34.4241316053447 C1005.9862950157888 34.4241316053447 1006.4882370498182 33.922189571315236 1006.4882370498182 33.23063948826632 C1006.4882370498182 32.90713770693503 1006.3544704030828 32.605972728585115 1006.086682938459 32.33818647430026 L998.9589818744774 25.277457693589838 C998.7805416217793 25.08783633084333 998.5574289734571 24.953981329373832 998.3119783118149 24.909358557641646 L1005.4063006517315 24.909358557641646 C1006.0978519451191 24.909358557641646 1006.5997939791487 24.396260830679136 1006.5997939791487 23.704685330514938 C1006.5997939791487 23.0130971217931 1006.0978519451191 22.5 1005.4063006517315 22.5 L990.6712182517131 22.5 C989.9907990496513 22.5 989.4999999999973 23.0130971217931 989.4999999999973 23.704685330514938 C989.4999999999973 24.396260830679136 989.9907990496513 24.909358557641646 990.6712182517131 24.909358557641646 L997.7878265603805 24.909358557641646 C997.5423771090769 24.953981329373832 997.319263250416 25.08783633084333 997.1408229977179 25.277457693589838 L990.0131104355174 32.33818647430026 C989.7453992222396 32.605972728585115 989.6226999137032 32.90713770693503 989.6226999137032 33.23063948826632 C989.6226999137032 33.922189571315236 990.1134983581878 34.4241316053447 990.7939187705883 34.4241316053447 C991.1397065206704 34.4241316053447 991.4408836024086 34.29023787303285 991.6751277368872 34.05608330362708 L993.9617736722654 31.802865716205744 L996.9400471523771 28.523428468082926 L996.8284902230466 30.877033978174623 L996.8284902230466 41.26183548729769 C996.8284902230466 41.99805796597054 997.3304322570762 42.5 998.0554869394277 42.5 Z "></path>
    </defs>
    <g transform="rotate(180.0 998.049896989573 32.5)" style="mix-blend-mode:normal">
      <use xmlns:xlink="http://www.w3.org/1999/xlink" xlink:href="#mi-933df761-Path_26-33659" fill="#8E8E93" fill-opacity="1.0"></use>
    </g>
  </g>
</svg>
