<?xml version="1.0" encoding="UTF-8"?>
<svg xmlns="http://www.w3.org/2000/svg" width="21.60081976657671" height="20.0" viewBox="797.4160913132655 25.5 21.60081976657671 20.0" preserveAspectRatio="none">
  <g>
    <defs>
      <path id="mi-ced5829b-Path_26-403df" d="M797.4160913132655 32.1702607932362 C797.4160913132655 36.72732570696037 801.2474671002166 41.23108321169236 807.2025912782352 45.07305898926336 C807.5334821418157 45.28652949463168 807.9390506254445 45.5 808.216513645333 45.5 C808.4939755071955 45.5 808.8995451488502 45.28652949463168 809.2304348544046 45.07305898926336 C815.1963055133273 41.23108321169236 819.0169110798422 36.72732570696037 819.0169110798422 32.1702607932362 C819.0169110798422 28.232126014068857 816.2954713293274 25.5 812.805635033667 25.5 C810.7672267866694 25.5 809.1770070107127 26.428485527860076 808.216513645333 27.83724263596817 C807.2773904910092 26.439159053128492 805.6764856095244 25.5 803.6380773625268 25.5 C800.1375438020659 25.5 797.4160913132655 28.232126014068857 797.4160913132655 32.1702607932362 Z M799.6146024392895 32.15957568770819 C799.6146024392895 29.47011945616785 801.3862101904203 27.645144078694813 803.7661828262669 27.645144078694813 C805.6871718730785 27.645144078694813 806.7650867546963 28.808435003187466 807.4374319946595 29.822308733194873 C807.7362663836301 30.25987347408367 807.9390506254445 30.398616564287522 808.216513645333 30.398616564287522 C808.5046617707494 30.398616564287522 808.6860746434818 30.249199948815253 808.9955941379803 29.822308733194873 C809.7213683796615 28.829769315438746 810.7565405231154 27.645144078694813 812.6668433063729 27.645144078694813 C815.057513786033 27.645144078694813 816.8291452766962 29.47011945616785 816.8291452766962 32.15957568770819 C816.8291452766962 35.91618758167702 812.9230565499053 40.078490710026244 808.4192978871473 43.066707216875685 C808.3232477399911 43.13069973139588 808.259255225471 43.173442469559845 808.216513645333 43.173442469559845 C808.1738924998947 43.173442469559845 808.1097783926488 43.13069973139588 808.0244145090466 43.066707216875685 C803.5206558462886 40.078490710026244 799.6146024392895 35.91618758167702 799.6146024392895 32.15957568770819 Z "></path>
    </defs>
    <g style="mix-blend-mode:normal">
      <use xmlns:xlink="http://www.w3.org/1999/xlink" xlink:href="#mi-ced5829b-Path_26-403df" fill="#8E8E93" fill-opacity="1.0"></use>
    </g>
  </g>
</svg>
