<?xml version="1.0" encoding="UTF-8"?>
<svg xmlns="http://www.w3.org/2000/svg" width="25.13693509394402" height="22.0" viewBox="411.5 24.5 25.13693509394402 22.0" preserveAspectRatio="none">
  <g>
    <defs>
      <path id="mi-ced5829b-Path_23-403df" d="M411.5 34.88718707477913 C411.5 35.42165911158351 411.9110677888511 35.88410458945814 412.56878071141404 35.88410458945814 C412.8873592931801 35.88410458945814 413.1751042364002 35.70941632090694 413.4320272496274 35.50385873059991 L414.60357504764175 34.517231361539615 L414.60357504764175 44.074705900055264 C414.60357504764175 45.595571134855795 415.5182109834319 46.5 417.0905603993352 46.5 L430.99498473948194 46.5 C432.5571265271891 46.5 433.4820174829384 45.595571134855795 433.4820174829384 44.074705900055264 L433.4820174829384 34.46589994917874 L434.71524259394755 35.50385873059991 C434.961842566097 35.70941632090694 435.24959866032015 35.88410458945814 435.5682229611988 35.88410458945814 C436.1744896160694 35.88410458945814 436.63693509394403 35.50385873059991 436.63693509394403 34.90776625091625 C436.63693509394403 34.558389713813845 436.50340406256674 34.28092153500883 436.23611005894867 34.05478588366499 L433.4820174829384 31.73226946377346 L433.4820174829384 27.354368938064184 C433.4820174829384 26.89191175163635 433.1839712430965 26.604166808416288 432.7215257652219 26.604166808416288 L431.3033211249425 26.604166808416288 C430.8511657926866 26.604166808416288 430.54282940722607 26.89191175163635 430.54282940722607 27.354368938064184 L430.54282940722607 29.265852694764263 L425.5380139142901 25.06265158860924 C424.6439922802967 24.312449458961343 423.5135448493407 24.312449458961343 422.6194061298152 25.06265158860924 L411.9110677888511 34.05478588366499 C411.63358901659313 34.28092153500883 411.5 34.58925792046937 411.5 34.88718707477913 Z M427.0281291430675 37.72359635533792 C427.0281291430675 37.240571701326175 426.7199087280387 36.93235240139771 426.2368851891273 36.93235240139771 L421.92065194051014 36.93235240139771 C421.43762728649835 36.93235240139771 421.1190018705194 37.240571701326175 421.1190018705194 37.72359635533792 L421.1190018705194 44.454950643813184 L417.6352277982323 44.454950643813184 C416.998059483697 44.454950643813184 416.648658971938 44.095167990660315 416.648658971938 43.447745213716075 L416.648658971938 32.80109756695046 L423.6266126750126 26.94330114921311 C423.91436988433605 26.69665601550124 424.2431672453013 26.69665601550124 424.53092445462477 26.94330114921311 L431.4266779811328 32.739360038539104 L431.4266779811328 43.447745213716075 C431.4266779811328 44.095167990660315 431.07718547359866 44.454950643813184 430.4400506120725 44.454950643813184 L427.0281291430675 44.454950643813184 L427.0281291430675 37.72359635533792 Z "></path>
    </defs>
    <g style="mix-blend-mode:normal">
      <use xmlns:xlink="http://www.w3.org/1999/xlink" xlink:href="#mi-ced5829b-Path_23-403df" fill="#8E8E93" fill-opacity="1.0"></use>
    </g>
  </g>
</svg>
