<svg fill="#FFF" viewBox="0 0 24 24" id="notification-copy" xmlns="http://www.w3.org/2000/svg" class="icon line" stroke="#FFF"><g id="SVGRepo_bgCarrier" stroke-width="0"></g><g id="SVGRepo_tracerCarrier" stroke-linecap="round" stroke-linejoin="round"></g><g id="SVGRepo_iconCarrier"><path id="primary" d="M19.38,14.38a2.12,2.12,0,0,1,.62,1.5h0A2.12,2.12,0,0,1,17.88,18H6.12A2.12,2.12,0,0,1,4,15.88H4a2.12,2.12,0,0,1,.62-1.5L6,13V9a6,6,0,0,1,6-6h0a6,6,0,0,1,6,6v4ZM15,18H9a3,3,0,0,0,3,3h0A3,3,0,0,0,15,18Z" style="fill: none; stroke: #ffffff; stroke-linecap: round; stroke-linejoin: round; stroke-width: 1.5;"></path></g></svg>