<?xml version="1.0" encoding="UTF-8"?>
<svg xmlns="http://www.w3.org/2000/svg" width="19.8129783790071" height="20.0" viewBox="607.1200240141043 25.5 19.8129783790071 20.0" preserveAspectRatio="none">
  <g>
    <defs>
      <path id="mi-ced5829b-Path_25-403df" d="M615.2966040755912 41.853206907690065 C616.948594949866 41.853206907690065 618.4966786605748 41.35447732411039 619.7849358405562 40.50253553433064 L624.3355645552732 45.06356736617239 C624.6368829288459 45.35448262262042 625.0213044864203 45.5 625.4369308859984 45.5 C626.2991585492769 45.5 626.9330023931113 44.82466318597773 626.9330023931113 43.972721396197976 C626.9330023931113 43.57789897618413 626.7978881328565 43.19347741860989 626.5069728764084 42.90256216216186 L621.9875512583804 38.36233430988443 C622.9225962321617 37.03246804343189 623.4732196483687 35.42208738297092 623.4732196483687 33.67659246225509 C623.4732196483687 29.177916201978412 619.7953389576809 25.5 615.2966040755912 25.5 C610.8083309324393 25.5 607.1200240141043 29.177916201978412 607.1200240141043 33.67659246225509 C607.1200240141043 38.17532621700222 610.7979402160827 41.853206907690065 615.2966040755912 41.853206907690065 Z M615.2966040755912 39.67139772411521 C612.003131414367 39.67139772411521 609.3018455984472 36.970052722711245 609.3018455984472 33.67659246225509 C609.3018455984472 30.383107400262666 612.003131414367 27.681809747246135 615.2966040755912 27.681809747246135 C618.5901838343585 27.681809747246135 621.2914104647939 30.383107400262666 621.2914104647939 33.67659246225509 C621.2914104647939 36.970052722711245 618.5901838343585 39.67139772411521 615.2966040755912 39.67139772411521 Z "></path>
    </defs>
    <g style="mix-blend-mode:normal">
      <use xmlns:xlink="http://www.w3.org/1999/xlink" xlink:href="#mi-ced5829b-Path_25-403df" fill="#8E8E93" fill-opacity="1.0"></use>
    </g>
  </g>
</svg>
