<svg viewBox="0 0 24 24" fill="none" xmlns="http://www.w3.org/2000/svg"><g id="SVGRepo_bgCarrier" stroke-width="0"></g><g id="SVGRepo_tracerCarrier" stroke-linecap="round" stroke-linejoin="round"></g><g id="SVGRepo_iconCarrier"><path d="M20.6 3H3.4A2.4 2.4 0 0 0 1 5.4v13.2A2.4 2.4 0 0 0 3.4 21h17.2a2.4 2.4 0 0 0 2.4-2.4V5.4A2.4 2.4 0 0 0 20.6 3Z" fill="#000000" fill-opacity=".16" stroke="#000000" stroke-width="1.5" stroke-miterlimit="10"></path><path d="M20.6 3H3.4A2.4 2.4 0 0 0 1 5.4V9h22V5.4A2.4 2.4 0 0 0 20.6 3Z" fill="#ffffff" stroke="#000000" stroke-width="1.5" stroke-miterlimit="10"></path><path d="m15 9 2-6M7 9l2-6M1 9h22" stroke="#000000" stroke-width="1.5" stroke-miterlimit="10" stroke-linecap="round"></path></g></svg>