<?xml version="1.0" encoding="UTF-8"?>
<svg xmlns="http://www.w3.org/2000/svg" width="92.04599380493164" height="16.766998291015625" viewBox="43.72700119018555 63.11650085449219 92.04599380493164 16.766998291015625" preserveAspectRatio="none">
  <g>
    <defs>
      <path id="m-Union_3-580b9" d="M49.292999267578125 67.11849975585938 C48.26566696166992 67.11849975585938 47.3303337097168 67.39067077636719 46.48699951171875 67.93499755859375 C45.6436653137207 68.47933197021484 44.972835540771484 69.23066711425781 44.4744987487793 70.18900299072266 C43.976165771484375 71.14733123779297 43.72700119018555 72.25516510009766 43.72700119018555 73.51249694824219 C43.72700119018555 74.75450134277344 43.976165771484375 75.85466766357422 44.4744987487793 76.81300354003906 C44.972835540771484 77.77133178710938 45.65133285522461 78.52266693115234 46.51000213623047 79.06700134277344 C47.36866760253906 79.61133575439453 48.32699966430664 79.88349914550781 49.38500213623047 79.88349914550781 C49.96766662597656 79.88349914550781 50.5081672668457 79.78766632080078 51.006500244140625 79.59600067138672 C51.50483322143555 79.40433502197266 51.9379997253418 79.17050170898438 52.305999755859375 78.89450073242188 C52.57792282104492 78.69055938720703 52.8079833984375 78.48452758789062 52.996185302734375 78.27639770507812 C53.00172805786133 78.66362762451172 53.131996154785156 78.98849487304688 53.387001037597656 79.2509994506836 C53.647666931152344 79.51933288574219 53.977333068847656 79.65350341796875 54.375999450683594 79.65350341796875 C54.77466583251953 79.65350341796875 55.104331970214844 79.51933288574219 55.3650016784668 79.2509994506836 C55.625667572021484 78.982666015625 55.75600051879883 78.649169921875 55.75600051879883 78.25050354003906 L55.75600051879883 68.52149963378906 C55.75600051879883 68.10749816894531 55.625667572021484 67.7701644897461 55.3650016784668 67.5094985961914 C55.104331970214844 67.24883270263672 54.77466583251953 67.11849975585938 54.375999450683594 67.11849975585938 C53.977333068847656 67.11849975585938 53.647666931152344 67.25267028808594 53.387001037597656 67.52100372314453 C53.12633514404297 67.78933715820312 52.996002197265625 68.12283325195312 52.996002197265625 68.52149963378906 L52.996002197265625 68.55105590820312 C52.861595153808594 68.42557525634766 52.71209716796875 68.30072021484375 52.54750061035156 68.17649841308594 C52.14116668701172 67.86983489990234 51.6619987487793 67.61683654785156 51.11000061035156 67.4175033569336 C50.55799865722656 67.21817016601562 49.952335357666016 67.11849975585938 49.292999267578125 67.11849975585938 Z M64.22000122070312 67.11849975585938 C63.03933334350586 67.11849975585938 61.99283218383789 67.39067077636719 61.080501556396484 67.93499755859375 C60.16816711425781 68.47933197021484 59.45516586303711 69.23066711425781 58.94150161743164 70.18900299072266 C58.427833557128906 71.14733123779297 58.17100143432617 72.25516510009766 58.17100143432617 73.51249694824219 C58.17100143432617 74.70850372314453 58.41250228881836 75.78949737548828 58.89550018310547 76.75550079345703 C59.378501892089844 77.72149658203125 60.064666748046875 78.48433685302734 60.954002380371094 79.04399871826172 C61.84333419799805 79.60366821289062 62.89366912841797 79.88349914550781 64.1050033569336 79.88349914550781 C64.91766357421875 79.88349914550781 65.67283630371094 79.78766632080078 66.37049865722656 79.59600067138672 C67.06816864013672 79.40433502197266 67.63166809082031 79.15133666992188 68.06100463867188 78.83699798583984 C68.4903335571289 78.52266693115234 68.70500183105469 78.17383575439453 68.70500183105469 77.79049682617188 C68.70500183105469 77.42250061035156 68.59766387939453 77.11199951171875 68.38300323486328 76.85900115966797 C68.1683349609375 76.60600280761719 67.86166381835938 76.47949981689453 67.46299743652344 76.47949981689453 C67.12566375732422 76.47949981689453 66.87266540527344 76.54850006103516 66.7040023803711 76.6865005493164 C66.53533172607422 76.82450103759766 66.34366607666016 76.954833984375 66.12899780273438 77.07749938964844 C65.94499969482422 77.16950225830078 65.71500396728516 77.2385025024414 65.43900299072266 77.28450012207031 C65.16300201416016 77.33049774169922 64.83333587646484 77.35350036621094 64.44999694824219 77.35350036621094 C63.76000213623047 77.35350036621094 63.1505012512207 77.1848373413086 62.62150192260742 76.84750366210938 C62.09250259399414 76.51016998291016 61.67850112915039 76.05400085449219 61.37950134277344 75.47900390625 C61.080501556396484 74.90399932861328 60.930999755859375 74.24849700927734 60.930999755859375 73.51249694824219 C60.930999755859375 72.76116943359375 61.07666778564453 72.0979995727539 61.36800003051758 71.52300262451172 C61.659332275390625 70.947998046875 62.07716751098633 70.49183654785156 62.62150192260742 70.15450286865234 C63.16583251953125 69.81716918945312 63.829002380371094 69.64849853515625 64.61100006103516 69.64849853515625 C64.76433563232422 69.64849853515625 64.9981689453125 69.67533111572266 65.3125 69.72899627685547 C65.6268310546875 69.78266906738281 65.86066436767578 69.85549926757812 66.01399993896484 69.94750213623047 C66.18267059326172 70.03949737548828 66.32833099365234 70.13916778564453 66.45100402832031 70.24649810791016 C66.57366943359375 70.35383605957031 66.71549987792969 70.44200134277344 66.87650299072266 70.51100158691406 C67.0374984741211 70.58000183105469 67.24066925048828 70.614501953125 67.48600006103516 70.614501953125 C67.83866882324219 70.614501953125 68.10700225830078 70.48033142089844 68.29100036621094 70.21199798583984 C68.4749984741211 69.94366455078125 68.56700134277344 69.65616607666016 68.56700134277344 69.34950256347656 C68.56700134277344 68.8895034790039 68.38683319091797 68.49466705322266 68.02650451660156 68.16500091552734 C67.66616821289062 67.83533477783203 67.16016387939453 67.57849884033203 66.50849914550781 67.39450073242188 C65.8568344116211 67.21050262451172 65.09400177001953 67.11849975585938 64.22000122070312 67.11849975585938 Z "></path>
    </defs>
    <g style="mix-blend-mode:normal">
      <use xmlns:xlink="http://www.w3.org/1999/xlink" xlink:href="#m-Union_3-580b9" fill="#FFFFFF" fill-opacity="1.0"></use>
    </g>
  </g>
  <g>
    <defs>
      <path id="m-Union_2-580b9" d="M120.40899658203125 63.11650085449219 C119.9183349609375 63.11650085449219 119.55416870117188 63.196998596191406 119.31649780273438 63.358001708984375 C119.0788345336914 63.51900100708008 118.95999908447266 63.821834564208984 118.95999908447266 64.2665023803711 L118.95999908447266 64.70349884033203 C118.95999908447266 65.1328353881836 119.06733703613281 65.43183135986328 119.28199768066406 65.60050201416016 C119.49666595458984 65.7691650390625 119.86466979980469 65.85350036621094 120.38600158691406 65.85350036621094 C120.90733337402344 65.85350036621094 121.28299713134766 65.77300262451172 121.51300048828125 65.61199951171875 C121.74300384521484 65.45100402832031 121.85800170898438 65.1481704711914 121.85800170898438 64.70349884033203 L121.85800170898438 64.2665023803711 C121.85800170898438 63.83716583251953 121.75066375732422 63.53816604614258 121.53600311279297 63.36949920654297 C121.32133483886719 63.20083236694336 120.94566345214844 63.11650085449219 120.40899658203125 63.11650085449219 Z M100.4837875366211 71.42123413085938 C100.551025390625 71.42123413085938 100.59675598144531 71.43904876708984 100.61750030517578 71.47699737548828 C100.93183135986328 72.052001953125 101.08899688720703 72.73049926757812 101.08899688720703 73.51249694824219 C101.08899688720703 74.27916717529297 100.93183135986328 74.94999694824219 100.61750030517578 75.5250015258789 C100.30316925048828 76.0999984741211 99.88150024414062 76.54850006103516 99.35250091552734 76.87049865722656 C98.82350158691406 77.19249725341797 98.23699951171875 77.35350036621094 97.59300231933594 77.35350036621094 C96.9489974975586 77.35350036621094 96.36250305175781 77.19249725341797 95.83350372314453 76.87049865722656 C95.30449676513672 76.54850006103516 94.8828353881836 76.0999984741211 94.56849670410156 75.5250015258789 C94.27490997314453 74.98794555664062 99.53237915039062 71.42123413085938 100.4837875366211 71.42123413085938 Z M77.16899871826172 67.11849975585938 C76.66300201416016 67.11849975585938 76.1953353881836 67.1989974975586 75.76599884033203 67.36000061035156 C75.336669921875 67.52100372314453 74.94566345214844 67.7318344116211 74.59300231933594 67.99250030517578 C74.2403335571289 68.25316619873047 73.94133758544922 68.53299713134766 73.69599914550781 68.83200073242188 C73.61322784423828 68.9328842163086 73.53656005859375 69.03158569335938 73.46600341796875 69.12810516357422 L73.46600341796875 68.75150299072266 C73.46600341796875 68.35283660888672 73.3356704711914 68.01933288574219 73.07500457763672 67.7509994506836 C72.8143310546875 67.482666015625 72.48466491699219 67.34850311279297 72.08599853515625 67.34850311279297 C71.68733215332031 67.34850311279297 71.357666015625 67.482666015625 71.09700012207031 67.7509994506836 C70.83633422851562 68.01933288574219 70.70600128173828 68.35283660888672 70.70600128173828 68.75150299072266 L70.70600128173828 78.25050354003906 C70.70600128173828 78.649169921875 70.83633422851562 78.982666015625 71.09700012207031 79.2509994506836 C71.357666015625 79.51933288574219 71.68733215332031 79.65350341796875 72.08599853515625 79.65350341796875 C72.48466491699219 79.65350341796875 72.8143310546875 79.51933288574219 73.07500457763672 79.2509994506836 C73.3356704711914 78.982666015625 73.46600341796875 78.649169921875 73.46600341796875 78.25050354003906 L73.46600341796875 72.36250305175781 C73.46600341796875 71.85649871826172 73.56950378417969 71.40033721923828 73.77649688720703 70.99400329589844 C73.9834976196289 70.5876693725586 74.29399871826172 70.26183319091797 74.70800018310547 70.0165023803711 C75.12200164794922 69.77116394042969 75.62033081054688 69.64849853515625 76.2030029296875 69.64849853515625 C76.8010025024414 69.64849853515625 77.26100158691406 69.77116394042969 77.58300018310547 70.0165023803711 C77.90499877929688 70.26183319091797 78.12733459472656 70.5876693725586 78.25 70.99400329589844 C78.37266540527344 71.40033721923828 78.43399810791016 71.85649871826172 78.43399810791016 72.36250305175781 L78.43399810791016 78.25050354003906 C78.43399810791016 78.649169921875 78.5643310546875 78.982666015625 78.82500457763672 79.2509994506836 C79.0856704711914 79.51933288574219 79.41533660888672 79.65350341796875 79.81400299072266 79.65350341796875 C80.2126693725586 79.65350341796875 80.5423355102539 79.51933288574219 80.8030014038086 79.2509994506836 C81.06366729736328 78.982666015625 81.19400024414062 78.649169921875 81.19400024414062 78.25050354003906 L81.19400024414062 72.36250305175781 C81.19400024414062 71.85649871826172 81.29750061035156 71.40033721923828 81.50450134277344 70.99400329589844 C81.71150207519531 70.5876693725586 82.02200317382812 70.26183319091797 82.43600463867188 70.0165023803711 C82.8499984741211 69.77116394042969 83.34833526611328 69.64849853515625 83.93099975585938 69.64849853515625 C84.52899932861328 69.64849853515625 84.98899841308594 69.77116394042969 85.31100463867188 70.0165023803711 C85.63300323486328 70.26183319091797 85.85533142089844 70.5876693725586 85.9780044555664 70.99400329589844 C86.10066986083984 71.40033721923828 86.16200256347656 71.85649871826172 86.16200256347656 72.36250305175781 L86.16200256347656 78.25050354003906 C86.16200256347656 78.649169921875 86.2923355102539 78.982666015625 86.5530014038086 79.2509994506836 C86.81366729736328 79.51933288574219 87.1433334350586 79.65350341796875 87.54199981689453 79.65350341796875 C87.94066619873047 79.65350341796875 88.27033233642578 79.51933288574219 88.53099822998047 79.2509994506836 C88.79166412353516 78.982666015625 88.92200469970703 78.649169921875 88.92200469970703 78.25050354003906 L88.92200469970703 72.36250305175781 C88.92200469970703 71.39649963378906 88.81466674804688 70.51866912841797 88.5999984741211 69.72899627685547 C88.38533020019531 68.9393310546875 87.9905014038086 68.30683135986328 87.4155044555664 67.83149719238281 C86.84049987792969 67.35617065429688 86.0009994506836 67.11849975585938 84.89700317382812 67.11849975585938 C84.22233581542969 67.11849975585938 83.61283111572266 67.26033020019531 83.0685043334961 67.54399871826172 C82.524169921875 67.82766723632812 82.06033325195312 68.17266845703125 81.677001953125 68.5790023803711 C81.31970977783203 68.95772552490234 81.04900360107422 69.31314086914062 80.86488342285156 69.64524841308594 C80.65229797363281 68.9989013671875 80.32500457763672 68.45182037353516 79.88300323486328 68.00399780273438 C79.30033111572266 67.41366577148438 78.39566802978516 67.11849975585938 77.16899871826172 67.11849975585938 Z M120.40899658203125 67.34850311279297 C120.01033020019531 67.34850311279297 119.6806640625 67.482666015625 119.41999816894531 67.7509994506836 C119.15933227539062 68.01933288574219 119.02899932861328 68.35283660888672 119.02899932861328 68.75150299072266 L119.02899932861328 78.25050354003906 C119.02899932861328 78.649169921875 119.15933227539062 78.982666015625 119.41999816894531 79.2509994506836 C119.6806640625 79.51933288574219 120.01033020019531 79.65350341796875 120.40899658203125 79.65350341796875 C120.80766296386719 79.65350341796875 121.13733673095703 79.51933288574219 121.39800262451172 79.2509994506836 C121.6586685180664 78.982666015625 121.78900146484375 78.649169921875 121.78900146484375 78.25050354003906 L121.78900146484375 68.75150299072266 C121.78900146484375 68.35283660888672 121.6586685180664 68.01933288574219 121.39800262451172 67.7509994506836 C121.13733673095703 67.482666015625 120.80766296386719 67.34850311279297 120.40899658203125 67.34850311279297 Z M106.81600189208984 67.34850311279297 C106.4020004272461 67.34850311279297 106.07233428955078 67.482666015625 105.8270034790039 67.7509994506836 C105.5816650390625 68.01933288574219 105.45899963378906 68.29150390625 105.45899963378906 68.56749725341797 C105.45899963378906 68.73616790771484 105.47816467285156 68.8818359375 105.5165023803711 69.00450134277344 C105.5548324584961 69.12716674804688 105.5893325805664 69.22683715820312 105.62000274658203 69.30349731445312 L109.89800262451172 78.77950286865234 C110.03600311279297 79.10150146484375 110.23916625976562 79.33916473388672 110.50749969482422 79.49250030517578 C110.71391296386719 79.6104507446289 110.9271240234375 79.66942596435547 111.14714813232422 79.66942596435547 C111.21315002441406 79.66942596435547 111.27976989746094 79.66411590576172 111.34700012207031 79.65350341796875 C111.8836669921875 79.62283325195312 112.27466583251953 79.33149719238281 112.5199966430664 78.77950286865234 L116.82099914550781 69.30349731445312 C116.86699676513672 69.1961669921875 116.90916442871094 69.08116912841797 116.94750213623047 68.95850372314453 C116.98583221435547 68.83583068847656 117.00499725341797 68.72083282470703 117.00499725341797 68.6135025024414 C117.00499725341797 68.26083374023438 116.88616943359375 67.96566772460938 116.64849853515625 67.72799682617188 C116.41083526611328 67.4903335571289 116.10033416748047 67.37149810791016 115.71700286865234 67.37149810791016 C115.69071197509766 67.37004089355469 115.66475677490234 67.36930847167969 115.6391372680664 67.36930847167969 C115.12663269042969 67.36930847167969 114.74625396728516 67.661376953125 114.49800109863281 68.24549865722656 L111.3503646850586 75.48505401611328 L108.17300415039062 68.22250366210938 C108.05033111572266 67.93116760253906 107.8663330078125 67.7126693725586 107.62100219726562 67.56700134277344 C107.37566375732422 67.42133331298828 107.10733032226562 67.34850311279297 106.81600189208984 67.34850311279297 Z M97.59300231933594 67.11849975585938 C96.42766571044922 67.11849975585938 95.37349700927734 67.39067077636719 94.43050384521484 67.93499755859375 C93.48750305175781 68.47933197021484 92.73616790771484 69.23066711425781 92.17649841308594 70.18900299072266 C91.61683654785156 71.14733123779297 91.33699798583984 72.25516510009766 91.33699798583984 73.51249694824219 C91.33699798583984 74.76983642578125 91.61683654785156 75.87767028808594 92.17649841308594 76.83599853515625 C92.73616790771484 77.7943344116211 93.48750305175781 78.54183197021484 94.43050384521484 79.07849884033203 C95.37349700927734 79.61516571044922 96.42766571044922 79.88349914550781 97.59300231933594 79.88349914550781 C98.75833129882812 79.88349914550781 99.8125 79.61516571044922 100.75550079345703 79.07849884033203 C101.69850158691406 78.54183197021484 102.44983673095703 77.7943344116211 103.0094985961914 76.83599853515625 C103.56916809082031 75.87767028808594 103.8489990234375 74.76983642578125 103.8489990234375 73.51249694824219 C103.8489990234375 72.25516510009766 103.56916809082031 71.14733123779297 103.0094985961914 70.18900299072266 C102.44983673095703 69.23066711425781 101.69850158691406 68.47933197021484 100.75550079345703 67.93499755859375 C99.8125 67.39067077636719 98.75833129882812 67.11849975585938 97.59300231933594 67.11849975585938 Z M129.95399475097656 67.11849975585938 C128.94200134277344 67.11849975585938 127.9836654663086 67.37916564941406 127.0790023803711 67.90049743652344 C126.17433166503906 68.42183685302734 125.44216918945312 69.1693344116211 124.88249969482422 70.14299774169922 C124.32283020019531 71.11666870117188 124.04299926757812 72.29350280761719 124.04299926757812 73.67350006103516 C124.04299926757812 74.85416412353516 124.29983520507812 75.91217041015625 124.8134994506836 76.84750366210938 C125.32716369628906 77.7828369140625 126.06316375732422 78.52266693115234 127.02149963378906 79.06700134277344 C127.9798355102539 79.61133575439453 129.1106719970703 79.88349914550781 130.41400146484375 79.88349914550781 C131.1806640625 79.88349914550781 131.92433166503906 79.75700378417969 132.64500427246094 79.50399780273438 C133.36566162109375 79.2509994506836 133.9253387451172 78.9558334350586 134.32400512695312 78.61849975585938 C134.75332641601562 78.28116607666016 134.96800231933594 77.90550231933594 134.96800231933594 77.49150085449219 C134.96800231933594 77.1848373413086 134.85682678222656 76.91650390625 134.63450622558594 76.6865005493164 C134.41217041015625 76.45649719238281 134.13233947753906 76.34149932861328 133.7949981689453 76.34149932861328 C133.54966735839844 76.34149932861328 133.28900146484375 76.4104995727539 133.01300048828125 76.54850006103516 C132.84432983398438 76.6405029296875 132.656494140625 76.75166320800781 132.44949340820312 76.88200378417969 C132.24249267578125 77.01233673095703 131.9703369140625 77.12349700927734 131.63299560546875 77.21549987792969 C131.29566955566406 77.30750274658203 130.8433380126953 77.35350036621094 130.2760009765625 77.35350036621094 C129.6626739501953 77.35350036621094 129.08383178710938 77.2040023803711 128.5395050048828 76.90499877929688 C127.99516296386719 76.60600280761719 127.55049896240234 76.16899871826172 127.20549774169922 75.59400177001953 C127.00375366210938 75.25775909423828 126.86099243164062 74.87825775146484 126.7772216796875 74.45549774169922 L134.3699951171875 74.45549774169922 C134.73800659179688 74.45549774169922 135.05999755859375 74.34049987792969 135.33599853515625 74.1104965209961 C135.61199951171875 73.88050079345703 135.75765991210938 73.58149719238281 135.7729949951172 73.2135009765625 C135.7729949951172 72.385498046875 135.61582946777344 71.60350036621094 135.30149841308594 70.86750030517578 C134.98716735839844 70.13150024414062 134.56166076660156 69.4836654663086 134.02499389648438 68.92400360107422 C133.4883270263672 68.36433410644531 132.8711700439453 67.92350006103516 132.17349243164062 67.60150146484375 C131.475830078125 67.27950286865234 130.73599243164062 67.11849975585938 129.95399475097656 67.11849975585938 Z "></path>
    </defs>
    <g style="mix-blend-mode:normal">
      <use xmlns:xlink="http://www.w3.org/1999/xlink" xlink:href="#m-Union_2-580b9" fill="#FFFFFF" fill-opacity="0.6"></use>
    </g>
  </g>
</svg>
